PathFileType	4	(X/Y/Z)	 control3min.trc
DataRate	CameraRate	NumFrames	NumMarkers	Units	OrigDataRate	OrigDataStartFrame	OrigNumFrames
200	200	9	42	m	200	626	1000
Frame#	Time	C7			LSH			RSH			MAN			RASI			LASI			HIPR			HIPL			RPSI			LPSI			COX			RTHI1			RTHI2			RTHI3			RTHI4			RLKN			RMKN			RSHA1			RSHA2			RSHA3			RSHA4			RLMAL			RHEEL			RMET5			RMET1			RTOE			LTHI1			LTHI2			LTHI3			LTHI4			LLKN			LMKN			LSHA1			LSHA2			LSHA3			LSHA4			LLMAL			LMMAL			LHEEL			LMET5			LMET1			LTOE			
		X1	Y1	Z1	X2	Y2	Z2	X3	Y3	Z3	X4	Y4	Z4	X5	Y5	Z5	X6	Y6	Z6	X7	Y7	Z7	X8	Y8	Z8	X9	Y9	Z9	X10	Y10	Z10	X11	Y11	Z11	X12	Y12	Z12	X13	Y13	Z13	X14	Y14	Z14	X15	Y15	Z15	X16	Y16	Z16	X17	Y17	Z17	X18	Y18	Z18	X19	Y19	Z19	X20	Y20	Z20	X21	Y21	Z21	X22	Y22	Z22	X23	Y23	Z23	X24	Y24	Z24	X25	Y25	Z25	X26	Y26	Z26	X27	Y27	Z27	X28	Y28	Z28	X29	Y29	Z29	X30	Y30	Z30	X31	Y31	Z31	X32	Y32	Z32	X33	Y33	Z33	X34	Y34	Z34	X35	Y35	Z35	X36	Y36	Z36	X37	Y37	Z37	X38	Y38	Z38	X39	Y39	Z39	X40	Y40	Z40	X41	Y41	Z41	X42	Y42	Z42	
626	3.1300	-0.319447	1.319631	-0.507172	-0.250324	1.328542	-0.671063	-0.230979	1.308979	-0.350230	-0.182477	1.276895	-0.523300	-0.157740	0.830996	-0.402131	-0.188365	0.826814	-0.649868	-0.201920	0.909097	-0.379119	-0.234233	0.899684	-0.662997	-0.330214	0.871323	-0.460357	-0.342192	0.867355	-0.547701	-0.341937	0.866529	-0.505976	-0.237416	0.672061	-0.331061	-0.225852	0.611013	-0.335253	-0.156252	0.632367	-0.343993	-0.175708	0.689561	-0.339425	-0.191912	0.404243	-0.361314	-0.199026	0.392676	-0.478284	-0.295219	0.294381	-0.339503	-0.319027	0.259840	-0.348094	-0.265517	0.231766	-0.353091	-0.245633	0.266727	-0.348700	-0.356037	0.094318	-0.379978	-0.413118	0.091606	-0.419425	-0.266662	0.034946	-0.361497	-0.231149	0.045260	-0.430487	-0.203486	0.035131	-0.428609	-0.295958	0.658225	-0.694489	-0.281600	0.600809	-0.700178	-0.213680	0.620314	-0.717066	-0.235706	0.677168	-0.710861	-0.233389	0.408045	-0.705146	-0.220017	0.384151	-0.592996	-0.352467	0.269814	-0.702833	-0.372232	0.236110	-0.689934	-0.315623	0.210249	-0.686124	-0.301948	0.250733	-0.699224	-0.413085	0.103581	-0.659528	-0.387087	0.120100	-0.582937	-0.465262	0.108103	-0.616291	-0.332696	0.035102	-0.683357	-0.286413	0.045456	-0.613335	-0.266403	0.036070	-0.624682	
627	3.1350	-0.319479	1.321760	-0.507069	-0.250243	1.330327	-0.671034	-0.231337	1.310408	-0.349900	-0.182432	1.278883	-0.523101	-0.157229	0.834039	-0.402146	-0.187238	0.830162	-0.649496	-0.201873	0.912908	-0.379263	-0.233194	0.903661	-0.662939	-0.329355	0.873713	-0.460699	-0.341112	0.869936	-0.547968	-0.340951	0.868965	-0.506290	-0.237570	0.673957	-0.331866	-0.225988	0.612904	-0.336005	-0.156335	0.634232	-0.344322	-0.175795	0.691437	-0.339886	-0.192863	0.406323	-0.362068	-0.199327	0.394226	-0.478852	-0.296426	0.296412	-0.340630	-0.320075	0.261791	-0.349207	-0.266279	0.233846	-0.353415	-0.246619	0.268915	-0.349117	-0.355766	0.095658	-0.380445	-0.412598	0.092643	-0.419991	-0.266532	0.035103	-0.361820	-0.230884	0.045210	-0.430643	-0.203336	0.035102	-0.428582	-0.295377	0.660516	-0.694174	-0.281136	0.603058	-0.699876	-0.213197	0.622424	-0.716790	-0.235099	0.679328	-0.710587	-0.233407	0.410286	-0.704273	-0.221058	0.386765	-0.591710	-0.352808	0.272000	-0.702075	-0.372346	0.238102	-0.689184	-0.315611	0.212448	-0.685905	-0.302176	0.253033	-0.698832	-0.412223	0.105004	-0.659496	-0.386253	0.121234	-0.582883	-0.464267	0.109638	-0.616239	-0.332459	0.035342	-0.683145	-0.286195	0.045379	-0.613241	-0.266283	0.036076	-0.624640	
628	3.1400	-0.319524	1.324684	-0.506946	-0.250093	1.332943	-0.670931	-0.231681	1.312721	-0.349603	-0.182389	1.281716	-0.522876	-0.156561	0.837763	-0.402278	-0.185967	0.834227	-0.649138	-0.201549	0.917503	-0.379660	-0.231774	0.908500	-0.662818	-0.328371	0.876620	-0.460998	-0.339933	0.873073	-0.548238	-0.339868	0.871965	-0.506585	-0.237601	0.676622	-0.332774	-0.226055	0.615537	-0.336790	-0.156334	0.636779	-0.344683	-0.175747	0.694012	-0.340439	-0.193912	0.409113	-0.362783	-0.199521	0.396314	-0.479495	-0.297572	0.299043	-0.341626	-0.321058	0.264306	-0.350155	-0.266948	0.236539	-0.353711	-0.247522	0.271723	-0.349470	-0.355237	0.097482	-0.380766	-0.411797	0.094264	-0.420331	-0.266315	0.035363	-0.362132	-0.230577	0.045142	-0.430808	-0.203214	0.035070	-0.428576	-0.294651	0.663521	-0.693892	-0.280587	0.606015	-0.699595	-0.212586	0.625164	-0.716490	-0.234304	0.682145	-0.710294	-0.233469	0.413344	-0.703370	-0.221937	0.389851	-0.590461	-0.353062	0.274731	-0.701407	-0.372356	0.240654	-0.688557	-0.315463	0.215264	-0.685796	-0.302313	0.255944	-0.698519	-0.411150	0.106885	-0.659678	-0.385261	0.122725	-0.583000	-0.462984	0.111623	-0.616425	-0.332114	0.035651	-0.682969	-0.285949	0.045267	-0.613149	-0.266180	0.036081	-0.624577	
629	3.1450	-0.319588	1.328339	-0.506801	-0.249897	1.336358	-0.670748	-0.232005	1.315885	-0.349344	-0.182355	1.285347	-0.522618	-0.155729	0.842035	-0.402501	-0.184560	0.838862	-0.648843	-0.200926	0.922540	-0.380240	-0.230056	0.913885	-0.662630	-0.327248	0.880051	-0.461269	-0.338646	0.876753	-0.548516	-0.338658	0.875529	-0.506877	-0.237510	0.680070	-0.333727	-0.226104	0.618947	-0.337589	-0.156289	0.639987	-0.345091	-0.175562	0.697270	-0.341056	-0.195062	0.412562	-0.363452	-0.199712	0.399020	-0.480191	-0.298608	0.302161	-0.342469	-0.321964	0.267317	-0.350903	-0.267514	0.239783	-0.353982	-0.248323	0.275093	-0.349764	-0.354431	0.099741	-0.380952	-0.410668	0.096492	-0.420430	-0.265991	0.035702	-0.362451	-0.230250	0.045047	-0.430954	-0.203121	0.035050	-0.428594	-0.293786	0.667318	-0.693648	-0.279987	0.609723	-0.699332	-0.211872	0.628575	-0.716151	-0.233331	0.685666	-0.709954	-0.233684	0.417145	-0.702440	-0.222635	0.393338	-0.589326	-0.353263	0.277948	-0.700842	-0.372287	0.243694	-0.688066	-0.315191	0.218657	-0.685806	-0.302385	0.259420	-0.698293	-0.409853	0.109168	-0.660093	-0.384089	0.124563	-0.583314	-0.461420	0.114013	-0.616879	-0.331620	0.036035	-0.682830	-0.285699	0.045140	-0.613070	-0.266107	0.036070	-0.624494	
630	3.1500	-0.319691	1.332639	-0.506621	-0.249683	1.340514	-0.670478	-0.232359	1.319853	-0.349100	-0.182338	1.289707	-0.522326	-0.154743	0.846743	-0.402809	-0.183027	0.843955	-0.648639	-0.200005	0.927795	-0.380906	-0.228130	0.919601	-0.662395	-0.325982	0.884045	-0.461533	-0.337233	0.880980	-0.548823	-0.337310	0.879662	-0.507180	-0.237303	0.684290	-0.334675	-0.226172	0.623110	-0.338383	-0.156227	0.643800	-0.345556	-0.175238	0.701170	-0.341710	-0.196328	0.416613	-0.364042	-0.199983	0.402399	-0.480903	-0.299535	0.305723	-0.343122	-0.322732	0.270768	-0.351415	-0.267946	0.243498	-0.354187	-0.249006	0.278950	-0.349978	-0.353340	0.102392	-0.381018	-0.409202	0.099264	-0.420313	-0.265545	0.036176	-0.362768	-0.229893	0.044927	-0.431084	-0.203058	0.035014	-0.428612	-0.292806	0.671893	-0.693428	-0.279345	0.614177	-0.699082	-0.211072	0.632667	-0.715775	-0.232203	0.689884	-0.709576	-0.234139	0.421593	-0.701487	-0.223159	0.397158	-0.588346	-0.353420	0.281568	-0.700386	-0.372146	0.247144	-0.687713	-0.314807	0.222554	-0.685925	-0.302403	0.263394	-0.698157	-0.408337	0.111780	-0.660705	-0.382710	0.126756	-0.583835	-0.459589	0.116762	-0.617587	-0.330994	0.036517	-0.682766	-0.285442	0.045008	-0.613020	-0.266067	0.036074	-0.624392	
631	3.1550	-0.319844	1.337476	-0.506410	-0.249482	1.345348	-0.670122	-0.232724	1.324553	-0.348878	-0.182353	1.294714	-0.522003	-0.153626	0.851803	-0.403190	-0.181395	0.849414	-0.648520	-0.198811	0.933164	-0.381564	-0.226080	0.925503	-0.662153	-0.324577	0.888599	-0.461810	-0.335704	0.885733	-0.549150	-0.335838	0.884355	-0.507504	-0.236992	0.689204	-0.335578	-0.226266	0.627950	-0.339157	-0.156158	0.648153	-0.346065	-0.174787	0.705637	-0.342373	-0.197699	0.421191	-0.364543	-0.200430	0.406473	-0.481593	-0.300357	0.309680	-0.343566	-0.323310	0.274548	-0.351801	-0.268227	0.247625	-0.354297	-0.249571	0.283232	-0.350110	-0.351979	0.105412	-0.380962	-0.407443	0.102522	-0.420026	-0.264984	0.036734	-0.363067	-0.229521	0.044787	-0.431185	-0.203027	0.034983	-0.428633	-0.291727	0.677175	-0.693261	-0.278656	0.619329	-0.698859	-0.210190	0.637396	-0.715360	-0.230951	0.694750	-0.709194	-0.234878	0.426598	-0.700527	-0.223544	0.401283	-0.587538	-0.353533	0.285539	-0.700045	-0.371926	0.250936	-0.687485	-0.314299	0.226878	-0.686157	-0.302358	0.267783	-0.698115	-0.406590	0.114680	-0.661478	-0.381091	0.129313	-0.584547	-0.457498	0.119839	-0.618480	-0.330259	0.037042	-0.682717	-0.285166	0.044866	-0.613007	-0.266052	0.036084	-0.624288	
632	3.1600	-0.320052	1.342752	-0.506168	-0.249347	1.350785	-0.669687	-0.233081	1.329892	-0.348702	-0.182440	1.300238	-0.521672	-0.152414	0.857161	-0.403644	-0.179697	0.855187	-0.648475	-0.197392	0.938624	-0.382148	-0.223969	0.931527	-0.661954	-0.323056	0.893692	-0.462107	-0.334074	0.890991	-0.549507	-0.334258	0.889569	-0.507859	-0.236588	0.694704	-0.336407	-0.226379	0.633361	-0.339912	-0.156082	0.652975	-0.346596	-0.174236	0.710594	-0.343014	-0.199167	0.426229	-0.364950	-0.201135	0.411210	-0.482226	-0.301061	0.313967	-0.343837	-0.323686	0.278572	-0.352105	-0.268360	0.252101	-0.354346	-0.250000	0.287890	-0.350144	-0.350366	0.108782	-0.380744	-0.405393	0.106213	-0.419698	-0.264287	0.037361	-0.363346	-0.229170	0.044629	-0.431201	-0.203010	0.034985	-0.428695	-0.290575	0.683045	-0.693220	-0.277915	0.625067	-0.698684	-0.209225	0.642666	-0.714913	-0.229609	0.700167	-0.708847	-0.235893	0.432069	-0.699586	-0.223857	0.405727	-0.586884	-0.353575	0.289786	-0.699810	-0.371604	0.254994	-0.687358	-0.313661	0.231527	-0.686473	-0.302232	0.272500	-0.698148	-0.404605	0.117847	-0.662357	-0.379195	0.132203	-0.585422	-0.455124	0.123203	-0.619495	-0.329379	0.037641	-0.682724	-0.284855	0.044747	-0.613029	-0.266056	0.036095	-0.624187	
633	3.1650	-0.320320	1.348383	-0.505904	-0.249301	1.356739	-0.669179	-0.233471	1.335761	-0.348570	-0.182617	1.306188	-0.521334	-0.151135	0.862788	-0.404155	-0.177970	0.861229	-0.648472	-0.195810	0.944198	-0.382629	-0.221855	0.937669	-0.661843	-0.321438	0.899276	-0.462441	-0.332361	0.896714	-0.549907	-0.332590	0.895258	-0.508245	-0.236123	0.700665	-0.337135	-0.226500	0.639233	-0.340630	-0.156007	0.658193	-0.347112	-0.173619	0.715957	-0.343605	-0.200714	0.431656	-0.365269	-0.202122	0.416547	-0.482770	-0.301637	0.318515	-0.343973	-0.323855	0.282819	-0.352385	-0.268335	0.256884	-0.354334	-0.250311	0.292879	-0.350088	-0.348574	0.112421	-0.380524	-0.403050	0.110226	-0.419359	-0.263460	0.038041	-0.363572	-0.228788	0.044470	-0.431175	-0.203013	0.034990	-0.428745	-0.289371	0.689381	-0.693367	-0.277121	0.631260	-0.698605	-0.208193	0.648356	-0.714441	-0.228211	0.706003	-0.708580	-0.237151	0.437924	-0.698676	-0.224194	0.410549	-0.586336	-0.353513	0.294239	-0.699650	-0.371157	0.259249	-0.687304	-0.312921	0.236392	-0.686796	-0.301998	0.277469	-0.698224	-0.402374	0.121237	-0.663275	-0.376963	0.135380	-0.586417	-0.452441	0.126810	-0.620535	-0.328395	0.038268	-0.682729	-0.284524	0.044664	-0.613101	-0.266068	0.036112	-0.624101	
634	3.1700	-0.320653	1.354278	-0.505616	-0.249343	1.363108	-0.668591	-0.233914	1.342065	-0.348493	-0.182904	1.312475	-0.520992	-0.149829	0.868648	-0.404710	-0.176244	0.867502	-0.648489	-0.194150	0.949926	-0.383016	-0.219786	0.943957	-0.661843	-0.319747	0.905299	-0.462811	-0.330578	0.902855	-0.550344	-0.330858	0.901372	-0.508667	-0.235625	0.706971	-0.337756	-0.226613	0.645444	-0.341311	-0.155926	0.663728	-0.347596	-0.172967	0.721642	-0.344120	-0.202331	0.437424	-0.365492	-0.203395	0.422422	-0.483219	-0.302096	0.323300	-0.344032	-0.323811	0.287249	-0.352672	-0.268151	0.261934	-0.354256	-0.250503	0.298140	-0.349951	-0.346559	0.116290	-0.380291	-0.400465	0.114474	-0.419086	-0.262506	0.038773	-0.363781	-0.228348	0.044297	-0.431122	-0.203033	0.034998	-0.428790	-0.288143	0.696035	-0.693701	-0.276281	0.637786	-0.698621	-0.207110	0.654341	-0.713957	-0.226781	0.712135	-0.708428	-0.238600	0.444083	-0.697803	-0.224681	0.415826	-0.585823	-0.353319	0.298826	-0.699531	-0.370553	0.263621	-0.687293	-0.312032	0.241416	-0.687105	-0.301623	0.282613	-0.698311	-0.399893	0.124819	-0.664166	-0.374342	0.138762	-0.587498	-0.449429	0.130629	-0.621521	-0.327317	0.038900	-0.682744	-0.284157	0.044604	-0.613205	-0.266081	0.036144	-0.624051	
